<?xml version="1.0" encoding="utf-8"?>
<!-- Generator: Adobe Illustrator 20.0.0, SVG Export Plug-In . SVG Version: 6.00 Build 0)  -->
<svg version="1.1" id="Layer_1" xmlns="http://www.w3.org/2000/svg" xmlns:xlink="http://www.w3.org/1999/xlink" x="0px" y="0px"
	 viewBox="0 0 64 64" style="enable-background:new 0 0 64 64;" xml:space="preserve">
<style type="text/css">
	.st0{fill:#1A376B;}
	.st1{fill:#FFFFFF;}
</style>
<rect class="st0" width="64" height="64"/>
<g id="icon-space">
	<polygon class="st1" points="44.7,12.5 38.3,12.5 38.3,18.8 32,18.8 32,25.2 25.7,25.2 25.7,31.5 19.3,31.5 13.1,31.5 13.1,37.8 
		19.3,37.8 19.3,44.2 25.7,44.2 25.7,50.4 32,50.4 32,44.5 32,37.8 38.3,37.8 38.3,31.5 44.7,31.5 44.7,25.2 50.9,25.2 50.9,19.2 
		50.9,12.5 	"/>
	<path class="st0" d="M57.5,0h-6.4h-6.4h-6.4H32h-6.4h-6.4h-6.4H6.4H0v6.4v6.4v6.4v6.4V32v6.4v6.4v6.4v6.4V64h6.4h6.4h6.4h6.4H32
		h6.4h6.4h6.4h6.4H64v-6.4v-6.4v-6.4v-6.4V32v-6.4v-6.4v-6.4V6.4V0H57.5z M51.1,19.2v6.4h-6.4V32h-6.4v6.4H32v6.4v6.4h-6.4v-6.4
		h-6.4v-6.4h-6.4V32h6.4h6.4v-6.4H32v-6.4h6.4v-6.4h6.4h6.4L51.1,19.2L51.1,19.2z"/>
</g>
</svg>
