<?xml version="1.0" encoding="utf-8"?>
<!-- Generator: Adobe Illustrator 20.0.0, SVG Export Plug-In . SVG Version: 6.00 Build 0)  -->
<svg version="1.1" id="Layer_1" xmlns="http://www.w3.org/2000/svg" xmlns:xlink="http://www.w3.org/1999/xlink" x="0px" y="0px"
	 viewBox="0 0 64 64" style="enable-background:new 0 0 64 64;" xml:space="preserve">
<style type="text/css">
	.st0{fill:#AE0059;}
	.st1{fill:#FFFFFF;}
</style>
<rect class="st0" width="64" height="64"/>
<g id="icon-arcology">
	<path class="st0" d="M57.5,0h-6.4h-6.4h-6.4H32h-6.4h-6.4h-6.4H6.4H0v6.4v6.4v6.4v6.4V32v6.4v6.4v6.4v6.4V64h6.4h6.4h6.4h6.4H32
		h6.4h6.4h6.4h6.4H64v-6.4v-6.4v-6.4v-6.4V32v-6.4v-6.4v-6.4V6.4V0H57.5z M19.3,44.5h6.4v-6.4v-6.4h-6.4v-6.4h6.4h6.4h6.4h6.4v6.4
		h-6.4v6.4v6.4h6.4v6.4h-6.4H32h-6.4h-6.4L19.3,44.5L19.3,44.5z"/>
	<path class="st1" d="M44.8,25.9c-0.3-7.9-5.9-12.3-12.7-12.3S19.7,18,19.4,25.9h0.1v6.3h6.3v6v6.7h-6.3v6.3h6.3h6.4h6.4h6.3v-6.3
		h-6.3v-6.7v-6h6.3L44.8,25.9L44.8,25.9z"/>
</g>
</svg>
