<?xml version="1.0" encoding="utf-8"?>
<!-- Generator: Adobe Illustrator 20.0.0, SVG Export Plug-In . SVG Version: 6.00 Build 0)  -->
<svg version="1.1" id="Layer_1" xmlns="http://www.w3.org/2000/svg" xmlns:xlink="http://www.w3.org/1999/xlink" x="0px" y="0px"
	 viewBox="0 0 64 64" style="enable-background:new 0 0 64 64;" xml:space="preserve">
<style type="text/css">
	.st0{fill:#E06948;}
	.st1{fill:#FFFFFF;}
</style>
<rect y="0.2" class="st0" width="64" height="64"/>
<g id="icon-health">
	<polygon class="st1" points="44.7,25.6 38.3,25.6 38.3,19.2 38.3,12.9 31.9,12.9 25.6,12.9 25.6,19.2 25.6,25.6 19.2,25.6 
		12.9,25.6 12.9,32 12.9,38.3 19.2,38.3 25.6,38.3 25.6,44.6 25.6,51 31.9,51 38.3,51 38.3,44.6 38.3,38.3 44.7,38.3 51.1,38.3 
		51.1,32 51.1,25.6 	"/>
	<path class="st0" d="M57.3,0.2h-6.4h-6.4h-6.4h-6.3h-6.3h-6.4h-6.4H6.4H0v6.4V13v6.4v6.4v6.4v6.4V45v6.4v6.4V64h6.4h6.4h6.4h6.4H32
		h6.4h6.4h6.4h6.4H64v-6.8V51v-6.4v-6.4v-6.4v-6.4V19v-6.4V6.4V0h-6.7V0.2L57.3,0.2z M51.1,32v6.4h-6.4h-6.4v6.4v6.4H32h-6.3v-6.4
		v-6.4h-6.5h-6.4V32v-6.4h6.4h6.4v-6.4v-6.4H32h6.4v6.4v6.4h6.4h6.4V32H51.1z"/>
</g>
</svg>
