<?xml version="1.0" encoding="utf-8"?>
<!-- Generator: Adobe Illustrator 20.0.0, SVG Export Plug-In . SVG Version: 6.00 Build 0)  -->
<svg version="1.1" id="Layer_1" xmlns="http://www.w3.org/2000/svg" xmlns:xlink="http://www.w3.org/1999/xlink" x="0px" y="0px"
	 viewBox="0 0 64 64" style="enable-background:new 0 0 64 64;" xml:space="preserve">
<style type="text/css">
	.st0{fill:#C4E247;}
	.st1{fill:#FFFFFF;}
</style>
<rect y="0.2" class="st0" width="64" height="64"/>
<g id="icon-tech">
	<g>
		<polygon class="st1" points="38.3,12.9 32,12.9 32,19.2 38.3,19.2 44.7,19.2 44.7,12.9 		"/>
		<rect x="25.6" y="19.2" class="st1" width="6.4" height="6.4"/>
		<rect x="44.7" y="19.2" class="st1" width="6.4" height="6.4"/>
		<polygon class="st1" points="12.8,25.6 12.8,32 12.8,38.3 19.2,38.3 25.6,38.3 25.6,32 25.6,25.6 19.2,25.6 		"/>
		<rect x="44.7" y="38.3" class="st1" width="6.4" height="6.4"/>
		<rect x="25.6" y="38.3" class="st1" width="6.4" height="6.4"/>
		<polygon class="st1" points="38.3,51 44.7,51 44.7,44.6 38.3,44.6 32,44.6 32,51 		"/>
	</g>
	<path class="st0" d="M57.5,0.2h-6.4h-6.4h-6.3h-6.3h-6.4h-6.5h-6.4H6.4H0v6.4V13v6.4v6.4v6.4v6.4V45v6.4v6.4V64h6.4h6.4h6.4h6.4H32
		h6.4h6.4h6.4h6.4H64v-6.8V51v-6.4v-6.4v-6.4v-6.4V19v-6.4V6.4V0h-6.5V0.2L57.5,0.2z M51.1,25.6h-6.4v-6.4h-6.3h-6.3v6.4h-6.4V32
		v6.4h6.4v6.4h6.4h6.4v-6.4h6.4v6.4h-6.4v6.4h-6.5h-6.3v-6.4h-6.4v-6.4h-6.5h-6.4V32v-6.4h6.4h6.4v-6.4H32v-6.4h6.4h6.4v6.4h6.4v6.4
		H51.1z"/>
</g>
</svg>
