<?xml version="1.0" encoding="utf-8"?>
<!-- Generator: Adobe Illustrator 20.0.0, SVG Export Plug-In . SVG Version: 6.00 Build 0)  -->
<svg version="1.1" id="Layer_1" xmlns="http://www.w3.org/2000/svg" xmlns:xlink="http://www.w3.org/1999/xlink" x="0px" y="0px"
	 viewBox="0 0 64 64" style="enable-background:new 0 0 64 64;" xml:space="preserve">
<style type="text/css">
	.st0{fill:#45BFE5;}
	.st1{fill:#FFFFFF;}
</style>
<rect class="st0" width="64" height="64"/>
<g id="icon-global">
	<polygon class="st1" points="44.7,25.3 44.7,19.1 38.3,19.1 38.3,12.7 32.1,12.7 25.7,12.7 25.7,19.1 19.3,19.1 19.3,25.3 
		12.9,25.3 12.9,31.7 12.9,38.1 19.3,38.1 19.3,44.5 25.7,44.5 25.7,50.8 32.1,50.8 38.3,50.8 38.3,44.5 44.7,44.5 44.7,38.1 
		51,38.1 51,31.7 51,25.3 	"/>
	<path class="st0" d="M57.4,0H51h-6.4h-6.3H32h-6.4h-6.4h-6.4H6.4H0v6.4v6.4v6.4v6.4V32v6.4v6.4v6.4v6.4V64h6.4h6.4h6.4h6.4H32h6.4
		h6.5h6.4h6.4H64v-6.4v-6.4v-6.4v-6.4V32v-6.4v-6.4v-6.4V6.4V0H57.4L57.4,0z M51,31.7v6.4h-6.4v6.4h-6.3v6.4H32h-6.4v-6.4h-6.4v-6.4
		h-6.4v-6.4v-6.4h6.4v-6.4h6.4v-6.4H32h6.4v6.4h6.4v6.4h6.4v6.4C51.2,31.7,51,31.7,51,31.7z"/>
</g>
</svg>
