<?xml version="1.0" encoding="utf-8"?>
<!-- Generator: Adobe Illustrator 20.0.0, SVG Export Plug-In . SVG Version: 6.00 Build 0)  -->
<svg version="1.1" id="Layer_1" xmlns="http://www.w3.org/2000/svg" xmlns:xlink="http://www.w3.org/1999/xlink" x="0px" y="0px"
	 viewBox="0 0 500 800" style="enable-background:new 0 0 500 800;" xml:space="preserve">
<style type="text/css">
	.st0{fill:#FFFFFF;}
	.st1{fill:#1A376B;}
	.st2{fill:#AE0059;}
	.st3{fill:#FFCE00;}
	.st4{fill:#E06948;}
	.st5{fill:#45BFE5;}
	.st6{fill:#C4E247;}
	.st7{fill:#999999;}
	.st8{fill:#666666;}
</style>
<g id="icon-space" class="animated zoomInDown">
	<polygon class="st0" points="266.1,644 258,644 258,652 250,652 250,660 242,660 242,668 233.9,668 226,668 226,676 234,676
		234,684 242,684 242,692 250,692 250,684.6 250,676 258,676 258,668 266,668 266,660 274,660 274,652.4 274,644 	"/>
	<path class="st1" d="M282.2,628.2h-8.1h-8.1h-8.1H250h-8.1h-8.1h-8.1h-8.1h-8.1v8.1v8.1v8.1v8.1v8.1v8.1v8.1v8.1v8.1v8.1h8.1h8.1
		h8.1h8.1h8.1h8.1h8.1h8.1h8.1h8.1v-8.1v-8.1v-8.1v-8.1v-8.1v-8.1v-8.1v-8.1v-8.1v-8.1H282.2z M274.2,652.4v8.1h-8.1v8.1h-8.1v8.1
		H250v8.1v8.1h-8.1v-8.1h-8.1v-8.1h-8.1v-8.1h8.1h8.1v-8.1h8.1v-8.1h8.1v-8.1h8.1h8.1V652.4z"/>
</g>
<g id="icon-arcology" class="animated zoomInDown">
	<path class="st2" d="M282.2,66.3h-8.1h-8.1h-8.1H250h-8.1h-8.1h-8.1h-8.1h-8.1v8.1v8.1v8.1v8.1v8.1v8.1v8.1v8.1v8.1v8.1h8.1h8.1
		h8.1h8.1h8.1h8.1h8.1h8.1h8.1h8.1v-8.1v-8.1v-8.1v-8.1v-8.1v-8.1v-8.1v-8.1v-8.1v-8.1H282.2z M233.9,122.6h8.1v-8.1v-8.1h-8.1v-8.1
		h8.1h8.1h8.1h8.1v8.1h-8.1v8.1v8.1h8.1v8.1h-8.1H250h-8.1h-8.1V122.6z"/>
	<path class="st0" d="M266.1,99c-0.3-10-7.4-15.6-16.1-15.6S234.2,89,233.9,99h0.1v8h8v7.6v8.4h-8v8h7.9h8.1h8.1h7.9v-8h-8v-8.4V107
		h8L266.1,99L266.1,99z"/>
</g>
<g id="icon-security" class="animated zoomInDown">
	<path class="st0" d="M415.1,210.4v-8.1h-8.1H399H391h-8.1v8.1h-8.1v8.1v8.1v8.1h8.1v8.1v8.1h8.1h8.1h8.1h8.1v-8.1v-8.1h8.1v-8.1
		v-8.1v-8.1H415.1z M415.1,226.5h-8.1H399H391h-8.1v-8.1h8.1h8.1h8.1h8.1V226.5z"/>
	<g>
		<path class="st3" d="M431.2,186.2h-8.1h-8.1h-8.1H399H391h-8.1h-8.1h-8.1h-8.1v8.1v8.1v8.1v8.1v8.1v8.1v8.1v8.1v8.1v8.1h8.1h8.1
			h8.1h8.1h8.1h8.1h8.1h8.1h8.1h8.1v-8.1v-8.1v-8.1v-8.1v-8.1v-8.1v-8.1v-8.1v-8.1v-8.1H431.2z M423.2,218.4v8.1v8.1h-8.1v8.1v8.1
			h-8.1H399H391h-8.1v-8.1v-8.1h-8.1v-8.1v-8.1v-8.1h8.1v-8.1h8.1h8.1h8.1h8.1v8.1h8.1V218.4z"/>
		<polygon class="st3" points="399,218.4 391,218.4 382.9,218.4 382.9,226.5 391,226.5 399,226.5 407.1,226.5 415.1,226.5
			415.1,218.4 407.1,218.4 		"/>
	</g>
</g>
<g id="icon-health" class="animated zoomInDown">
	<polygon class="st0" points="415.1,529.7 407.1,529.7 407.1,521.7 407.1,513.6 399,513.6 391,513.6 391,521.7 391,529.7
		382.9,529.7 374.9,529.7 374.9,537.8 374.9,545.8 382.9,545.8 391,545.8 391,553.9 391,562 399,562 407.1,562 407.1,553.9
		407.1,545.8 415.1,545.8 423.2,545.8 423.2,537.8 423.2,529.7 	"/>
	<path class="st4" d="M431.2,497.5h-8.1h-8.1h-8.1H399H391h-8.1h-8.1h-8.1h-8.1v8.1v8.1v8.1v8.1v8.1v8.1v8.1v8.1v8.1v8.1h8.1h8.1
		h8.1h8.1h8.1h8.1h8.1h8.1h8.1h8.1V570V562v-8.1v-8.1v-8.1v-8.1v-8.1v-8.1v-8.1v-8.1H431.2z M423.2,537.8v8.1h-8.1h-8.1v8.1v8.1H399
		H391v-8.1v-8.1h-8.1h-8.1v-8.1v-8.1h8.1h8.1v-8.1v-8.1h8.1h8.1v8.1v8.1h8.1h8.1V537.8z"/>
</g>
<g id="icon-global" class="animated zoomInDown">
	<polygon class="st0" points="117.1,218.4 117.1,210.4 109,210.4 109,202.3 101,202.3 92.9,202.3 92.9,210.4 84.9,210.4 84.9,218.4
		76.8,218.4 76.8,226.5 76.8,234.5 84.9,234.5 84.9,242.6 92.9,242.6 92.9,250.6 101,250.6 109,250.6 109,242.6 117.1,242.6
		117.1,234.5 125.1,234.5 125.1,226.5 125.1,218.4 	"/>
	<path class="st5" d="M133.2,186.2h-8.1h-8.1H109H101h-8.1h-8.1h-8.1h-8.1h-8.1v8.1v8.1v8.1v8.1v8.1v8.1v8.1v8.1v8.1v8.1h8.1h8.1
		h8.1h8.1h8.1h8.1h8.1h8.1h8.1h8.1v-8.1v-8.1v-8.1v-8.1v-8.1v-8.1v-8.1v-8.1v-8.1v-8.1H133.2z M125.1,226.5v8.1h-8.1v8.1H109v8.1
		H101h-8.1v-8.1h-8.1v-8.1h-8.1v-8.1v-8.1h8.1v-8.1h8.1v-8.1h8.1h8.1v8.1h8.1v8.1h8.1V226.5z"/>
</g>
<g id="icon-tech" class="animated zoomInDown">
	<g>
		<polygon class="st0" points="109,513.6 101,513.6 101,521.7 109,521.7 117.1,521.7 117.1,513.6 		"/>
		<rect x="92.9" y="521.7" class="st0" width="8.1" height="8.1"/>
		<rect x="117.1" y="521.7" class="st0" width="8.1" height="8.1"/>
		<polygon class="st0" points="76.8,529.7 76.8,537.8 76.8,545.8 84.9,545.8 92.9,545.8 92.9,537.8 92.9,529.7 84.9,529.7 		"/>
		<rect x="117.1" y="545.8" class="st0" width="8.1" height="8.1"/>
		<rect x="92.9" y="545.8" class="st0" width="8.1" height="8.1"/>
		<polygon class="st0" points="109,562 117.1,562 117.1,553.9 109,553.9 101,553.9 101,562 		"/>
	</g>
	<path class="st6" d="M133.2,497.5h-8.1h-8.1H109H101h-8.1h-8.1h-8.1h-8.1h-8.1v8.1v8.1v8.1v8.1v8.1v8.1v8.1v8.1v8.1v8.1h8.1h8.1
		h8.1h8.1h8.1h8.1h8.1h8.1h8.1h8.1V570V562v-8.1v-8.1v-8.1v-8.1v-8.1v-8.1v-8.1v-8.1H133.2z M125.1,529.7h-8.1v-8.1H109H101v8.1
		h-8.1v8.1v8.1h8.1v8.1h8.1h8.1v-8.1h8.1v8.1h-8.1v8.1H109H101v-8.1h-8.1v-8.1h-8.1h-8.1v-8.1v-8.1h8.1h8.1v-8.1h8.1v-8.1h8.1h8.1
		v8.1h8.1V529.7z"/>
</g>
<g>
	<g>
		<path class="st7" d="M64.8,406.3c-3.6,3.3-8.5,4.9-14.8,4.9c-6.3,0-11.4-2.3-15.3-6.9c-3.9-4.6-5.9-10.6-5.9-18.1v-9.4
			c0-7.4,2-13.5,5.9-18.1c3.9-4.6,9-6.9,15.3-6.9c6.3,0,11.2,1.6,14.8,4.8c3.6,3.2,5.6,7.8,6.1,13.8l0,0.2h-4.5
			c-1.3-9.8-6.7-14.8-16.2-14.8c-5,0-9.1,1.9-12.1,5.8c-3.1,3.9-4.6,8.9-4.6,15.1v9.5c0,6.3,1.5,11.3,4.6,15.2
			c3.1,3.9,7.1,5.8,12,5.8c4.9,0,8.8-1.2,11.4-3.7c2.7-2.5,4.3-6.2,4.9-11.1h4.4l0,0.2C70.5,398.4,68.4,403,64.8,406.3z"/>
		<path class="st7" d="M79.3,389.6v-1.3c0-6.4,1.7-11.6,5.2-15.6c3.5-4,8-6,13.7-6c5.7,0,10.3,2,13.8,6c3.5,4,5.2,9.2,5.2,15.6v1.3
			c0,6.4-1.7,11.6-5.2,15.6c-3.5,4-8,6-13.8,6c-5.7,0-10.3-2-13.8-6C81,401.3,79.3,396,79.3,389.6z M84.1,388.3v1.3
			c0,5.2,1.3,9.4,3.8,12.7c2.6,3.3,6,4.9,10.4,4.9c4.4,0,7.8-1.7,10.4-5c2.6-3.3,3.8-7.5,3.8-12.7v-1.3c0-5.1-1.3-9.2-3.9-12.6
			c-2.6-3.3-6.1-5-10.4-5s-7.8,1.7-10.4,5C85.3,379,84.1,383.2,84.1,388.3z"/>
		<path class="st7" d="M132,410.3h-4.8v-42.9h4.2l0.6,7.1v0.5c2.7-5.6,6.9-8.4,12.5-8.4c1.1,0,2.1,0.1,3.1,0.4l-0.6,4.5l-3.5-0.3
			c-2.9,0-5.3,0.8-7.3,2.5c-1.9,1.6-3.3,4-4.2,7V410.3z"/>
		<path class="st7" d="M156.1,352.6h16.8c6.1,0,10.8,1.3,14.1,3.8c3.3,2.5,4.9,6.3,4.9,11.4c0,3-0.8,5.5-2.5,7.7
			c-1.7,2.2-3.9,3.7-6.9,4.6c3.5,0.6,6.4,2.3,8.6,4.9c2.2,2.6,3.3,5.7,3.3,9.2c0,5.1-1.6,9.1-4.9,11.9c-3.3,2.8-7.8,4.2-13.5,4.2
			l-20,0V352.6z M160.8,356.6v21.9h13.3c4.2,0,7.5-0.9,9.7-2.8c2.2-1.8,3.4-4.5,3.4-8.1c0-7.4-4.8-11.1-14.3-11.1H160.8z
			 M176.8,382.6h-16v23.8h15.2c4.3,0,7.6-1.1,10-3.2c2.4-2.1,3.6-5,3.6-8.7c0-3.7-1.1-6.6-3.4-8.8
			C184.1,383.6,180.9,382.6,176.8,382.6z"/>
		<path class="st7" d="M210.4,348.4v6.7h-4.7v-6.7H210.4z M210.4,367.4v42.9h-4.7v-42.9H210.4z"/>
		<path class="st7" d="M226.3,356.5h4.8v11h9.5v3.9H231v28c0,5.1,1.9,7.7,5.6,7.7c1.6,0,3.1-0.1,4.8-0.4l0.7,3.5
			c-1.7,0.7-3.8,1.1-6.3,1.1c-6.3,0-9.5-4-9.5-11.9v-28h-7.4v-3.9h7.4V356.5z"/>
		<path class="st8" d="M293.3,381.6v21.1c-1.6,2.4-4.1,4.4-7.6,6c-3.5,1.6-7.8,2.5-12.8,2.5c-7,0-12.7-2.2-17.2-6.6
			c-4.5-4.4-6.7-10.1-6.7-17.1v-11.9c0-7.1,2.1-12.8,6.3-17.2c4.2-4.4,9.6-6.6,16.2-6.6c6.6,0,11.8,1.6,15.7,4.8s5.8,7.4,5.8,12.7
			l-0.1,0.2h-7.4c-0.3-3.5-1.6-6.3-3.9-8.4c-2.4-2.1-5.7-3.2-10-3.2c-4.3,0-7.9,1.6-10.6,4.9c-2.7,3.3-4.1,7.5-4.1,12.6v12
			c0,5.1,1.5,9.4,4.5,12.7s6.8,5,11.5,5c3.1,0,5.7-0.4,7.8-1.2c2.1-0.8,3.7-1.8,4.7-3.1v-13.1h-12.6v-6.1H293.3z"/>
		<path class="st8" d="M313.7,348.4v61.9h-7.8v-61.9H313.7z"/>
		<path class="st8" d="M323.9,389.4v-0.9c0-6.5,1.7-11.7,5.2-15.8c3.5-4.1,8.1-6.1,14-6.1s10.5,2,14,6.1c3.5,4,5.2,9.3,5.2,15.8v0.9
			c0,6.5-1.7,11.8-5.2,15.8c-3.5,4-8.1,6-14,6c-5.9,0-10.6-2-14-6C325.7,401.2,323.9,395.9,323.9,389.4z M331.8,388.5v0.9
			c0,4.8,1,8.6,2.9,11.4c2,2.9,4.8,4.3,8.4,4.3s6.5-1.4,8.5-4.3c2-2.9,3-6.7,3-11.4v-0.9c0-4.7-1-8.5-3-11.3c-2-2.9-4.8-4.3-8.5-4.3
			c-3.7,0-6.5,1.4-8.4,4.3C332.8,380.1,331.8,383.9,331.8,388.5z"/>
		<path class="st8" d="M408.6,389.7v0.8c0,6.3-1.5,11.3-4.5,15.1c-3,3.7-7.1,5.6-12.2,5.6c-5.6,0-9.8-2.2-12.6-6.5l-0.9,5.7H372
			v-61.9h7.8v24c2.8-3.9,6.8-5.9,12.1-5.9c5.2,0,9.3,2.1,12.3,6.3C407.1,377.1,408.6,382.7,408.6,389.7z M389.7,373
			c-4.6,0-7.9,2.2-10,6.5v18.6c2.1,4.5,5.5,6.7,10.2,6.7c3.6,0,6.3-1.3,8.2-3.8c1.8-2.5,2.8-6,2.8-10.5l-0.1-0.8
			c0-5.1-0.9-9.2-2.8-12.2C396.1,374.5,393.3,373,389.7,373z"/>
		<path class="st8" d="M430.4,411.2c-4.5,0-7.9-1.1-10.2-3.4c-2.4-2.3-3.5-5.4-3.5-9.5c0-4.1,1.6-7.3,4.9-9.6
			c3.3-2.3,7.8-3.5,13.6-3.5h8.5V381c0-2.5-0.8-4.5-2.3-6c-1.5-1.5-3.6-2.2-6.3-2.2c-2.6,0-4.7,0.6-6.3,1.9
			c-1.6,1.2-2.4,2.8-2.4,4.6h-7.4l-0.1-0.2c-0.1-3.2,1.4-6.1,4.5-8.7c3.2-2.5,7.2-3.8,12.1-3.8c4.9,0,8.8,1.3,11.7,3.8
			c2.9,2.5,4.4,6.1,4.4,10.6v20.7c0,3.3,0.4,6.2,1.1,8.6h-8.1c-0.6-2.7-0.9-4.9-0.9-6.4c-1.5,2.2-3.5,3.9-5.8,5.3
			C435.5,410.6,433,411.2,430.4,411.2z M424.5,398.5L424.5,398.5c0,1.9,0.6,3.5,1.8,4.5c1.2,1.1,3.1,1.6,5.6,1.6
			c2.5,0,4.9-0.7,7.3-2.1c2.3-1.4,3.8-3.1,4.5-5v-7h-8.7c-3.1,0-5.6,0.8-7.5,2.3C425.5,394.4,424.5,396.3,424.5,398.5z"/>
		<path class="st8" d="M471.2,348.4v61.9h-7.8v-61.9H471.2z"/>
	</g>
</g>
</svg>
