<?xml version="1.0" encoding="utf-8"?>
<!-- Generator: Adobe Illustrator 20.0.0, SVG Export Plug-In . SVG Version: 6.00 Build 0)  -->
<svg version="1.1" id="Layer_1" xmlns="http://www.w3.org/2000/svg" xmlns:xlink="http://www.w3.org/1999/xlink" x="0px" y="0px"
	 viewBox="0 0 362.3 136.4" style="enable-background:new 0 0 362.3 136.4;" xml:space="preserve">
<style type="text/css">
	.st0{fill:#FFFFFF;}
	.st1{fill:#1A376B;}
	.st2{fill:#AE0059;}
	.st3{fill:#FFCE00;}
	.st4{fill:#E06948;}
	.st5{fill:#45BFE5;}
	.st6{fill:#C4E247;}
	.st7{fill:#999999;}
	.st8{fill:#666666;}
</style>
<g>
	<g id="icon-space">
		<polygon class="st0" points="283.8,87.4 278.7,87.4 278.7,92.4 273.7,92.4 273.7,97.5 268.7,97.5 268.7,102.5 263.6,102.5 
			258.6,102.5 258.6,107.5 263.6,107.5 263.6,112.6 268.7,112.6 268.7,117.6 273.7,117.6 273.7,112.9 273.7,107.5 278.7,107.5 
			278.7,102.5 283.8,102.5 283.8,97.5 288.8,97.5 288.8,92.7 288.8,87.4 		"/>
		<path class="st1" d="M294,77.4h-5.1h-5.1h-5.1h-5h-5.1h-5.1h-5.1h-5.1h-5.1v5.1v5.1v5.1v5.1v5.1v5.1v5.1v5.1v5.1v5.1h5.1h5.1h5.1
			h5.1h5.1h5.1h5.1h5.1h5.1h5.1v-5.1v-5.1v-5.1V108v-5.1v-5.1v-5.1v-5.1v-5.1v-5.1H294z M288.9,92.7v5.1h-5.1v5.1h-5.1v5.1h-5v5.1
			v5.1h-5.1v-5.1h-5.1V108h-5.1v-5.1h5.1h5.1v-5.1h5.1v-5.1h5.1v-5.1h5.1h5.1L288.9,92.7L288.9,92.7z"/>
	</g>
	<g id="icon-arcology">
		<path class="st2" d="M109.5,77.4h-5.1h-5.1h-5.1h-5h-5.1H79h-5.1h-5.1h-5.1v5.1v5.1v5.1v5.1v5.1v5.1v5.1v5.1v5.1v5.1h5.1h5.1H79
			h5.1h5.1h5.1h5.1h5.1h5.1h5.1v-5.1v-5.1v-5.1V108v-5.1v-5.1v-5.1v-5.1v-5.1v-5.1H109.5z M79.1,112.9h5.1v-5.1v-5.1h-5.1v-5.1h5.1
			h5.1h5.1h5.1v5.1h-5.1v5.1v5.1h5.1v5.1h-5.1h-5.2h-5.1H79L79.1,112.9L79.1,112.9z"/>
		<path class="st0" d="M99.4,98c-0.2-6.3-4.7-9.8-10.1-9.8s-9.9,3.5-10.1,9.8h0.1v5h5v4.8v5.3h-5v5h5h5.1h5.1h5v-5h-5v-5.3v-4.8h5
			L99.4,98L99.4,98z"/>
	</g>
	<g id="icon-security">
		<path class="st0" d="M160.8,92.7v-5.1h-5.1h-5h-5h-5.1v5.1h-5.1v5.1v5.1v5.1h5.1v5.1v5.1h5.1h5.1h5.1h5.1v-5.1V108h5.1v-5.1v-5.1
			v-5.1H160.8z M160.8,102.8h-5.1h-5h-5h-5.1v-5.1h5.1h5.1h5.1h5.1v5.1H160.8z"/>
		<g>
			<path class="st3" d="M170.9,77.4h-5.1h-5.1h-5.1h-5h-5h-5.1h-5.1h-5.1h-5.1v5.1v5.1v5.1v5.1v5.1v5.1v5.1v5.1v5.1v5.1h5.1h5.1h5.1
				h5.1h5.1h5.1h5.1h5.1h5.1h5.1v-5.1v-5.1v-5.1V108v-5.1v-5.1v-5.1v-5.1v-5.1v-5.1L170.9,77.4L170.9,77.4z M165.9,97.7v5.1v5.1
				h-5.1v5.1v5.1h-5.1h-5h-5h-5.1V113v-5.1h-5.1v-5.1v-5.1v-5.1h5.1v-5.1h5.1h5.1h5.1h5.1v5.1h5.1v5.1H165.9z"/>
			<polygon class="st3" points="150.7,97.7 145.6,97.7 140.5,97.7 140.5,102.8 145.6,102.8 150.7,102.8 155.8,102.8 160.8,102.8 
				160.8,97.7 155.8,97.7 			"/>
		</g>
	</g>
	<g id="icon-health">
		<polygon class="st0" points="222.3,98.1 217.2,98.1 217.2,93 217.2,87.9 212.1,87.9 207.1,87.9 207.1,93 207.1,98.1 202,98.1 
			197,98.1 197,103.2 197,108.2 202,108.2 207.1,108.2 207.1,113.3 207.1,118.4 212.1,118.4 217.2,118.4 217.2,113.3 217.2,108.2 
			222.3,108.2 227.4,108.2 227.4,103.2 227.4,98.1 		"/>
		<path class="st4" d="M232.4,77.8h-5.1h-5.1h-5.1h-5h-5H202h-5.1h-5.1h-5.1v5.1V88v5.1v5.1v5.1v5.1v5.1v5.1v5.1v5.1h5.1h5.1h5.1
			h5.1h5.1h5.1h5.1h5.1h5.1h5.1v-5.4v-5v-5.1v-5.1v-5.1V98v-5.1v-5.1v-5.1v-5.1h-5.3V77.8z M227.4,103.2v5.1h-5.1h-5.1v5.1v5.1h-5
			h-5v-5.1v-5.1H202h-5.1v-5.1v-5.1h5.1h5.1V93v-5.1h5.1h5.1V93v5.1h5.1h5.1v5.1H227.4z"/>
	</g>
	<g id="icon-global">
		<polygon class="st0" points="37.9,97.2 37.9,92.2 32.8,92.2 32.8,87.1 27.8,87.1 22.7,87.1 22.7,92.2 17.6,92.2 17.6,97.2 
			12.5,97.2 12.5,102.3 12.5,107.4 17.6,107.4 17.6,112.5 22.7,112.5 22.7,117.5 27.8,117.5 32.8,117.5 32.8,112.5 37.9,112.5 
			37.9,107.4 42.9,107.4 42.9,102.3 42.9,97.2 		"/>
		<path class="st5" d="M48,77h-5.1h-5.1h-5h-5h-5.1h-5.1h-5.1H7.3H2.2v5.1v5.1v5.1v5.1v5.1v5.1v5.1v5.1v5.1v5.1h5.1h5.1h5.1h5.1h5.1
			h5.1H38h5.1h5.1h5.1v-5.1v-5.1v-5.1v-5.1v-5.1v-5.1v-5.1v-5.1v-5.1V77L48,77L48,77z M42.9,102.3v5.1h-5.1v5.1h-5v5.1h-5h-5.1v-5.1
			h-5.1v-5.1h-5.1v-5.1v-5.1h5.1v-5.1h5.1V87h5.1h5.1v5.1H38v5.1h5.1v5.1H42.9z"/>
	</g>
	<g id="icon-tech">
		<g>
			<polygon class="st0" points="340.2,87 335.2,87 335.2,92.1 340.2,92.1 345.3,92.1 345.3,87 			"/>
			<rect x="330.1" y="92.1" class="st0" width="5.1" height="5.1"/>
			<rect x="345.3" y="92.1" class="st0" width="5.1" height="5.1"/>
			<polygon class="st0" points="319.9,97.2 319.9,102.3 319.9,107.3 325,107.3 330.1,107.3 330.1,102.3 330.1,97.2 325,97.2 			"/>
			<rect x="345.3" y="107.3" class="st0" width="5.1" height="5.1"/>
			<rect x="330.1" y="107.3" class="st0" width="5.1" height="5.1"/>
			<polygon class="st0" points="340.2,117.5 345.3,117.5 345.3,112.4 340.2,112.4 335.2,112.4 335.2,117.5 			"/>
		</g>
		<path class="st6" d="M355.5,76.9h-5.1h-5.1h-5h-5h-5.1H325h-5.1h-5.1h-5.1V82v5.1v5.1v5.1v5.1v5.1v5.1v5.1v5.1v5.1h5.1h5.1h5.1
			h5.1h5.1h5.1h5.1h5.1h5.1h5.1v-5.4v-5v-5.1v-5.1v-5.1v-5.1V92v-5.1v-5.1v-5.1h-5.2V76.9z M350.4,97.2h-5.1v-5.1h-5h-5v5.1h-5.1
			v5.1v5.1h5.1v5.1h5.1h5.1v-5.1h5.1v5.1h-5.1v5.1h-5.2h-5v-5.1h-5.1v-5.1H325h-5.1v-5.1v-5.1h5.1h5.1v-5.1h5.1V87h5.1h5.1v5.1h5.1
			v5.1H350.4z"/>
	</g>
</g>
<g>
	<g>
		<path class="st7" d="M32.1,53.5c-2.9,2.7-6.8,3.9-11.9,3.9S11,55.6,7.8,51.9c-3.1-3.7-4.8-8.5-4.8-14.6v-7.6
			c0-6,1.6-10.9,4.8-14.6s7.3-5.6,12.3-5.6s9,1.3,11.9,3.9C35,16,36.6,19.7,37,24.6v0.2h-3.6c-1-7.9-5.4-11.9-13.1-11.9
			c-4,0-7.3,1.5-9.7,4.7c-2.5,3.1-3.7,7.2-3.7,12.2v7.7c0,5.1,1.2,9.1,3.7,12.2c2.5,3.1,5.7,4.7,9.7,4.7s7.1-1,9.2-3
			c2.2-2,3.5-5,3.9-8.9h3.5v0.2C36.7,47.1,35,50.8,32.1,53.5z"/>
		<path class="st7" d="M43.8,40v-1c0-5.2,1.4-9.3,4.2-12.6c2.8-3.2,6.4-4.8,11-4.8s8.3,1.6,11.1,4.8s4.2,7.4,4.2,12.6v1
			c0,5.2-1.4,9.3-4.2,12.6s-6.4,4.8-11.1,4.8c-4.6,0-8.3-1.6-11.1-4.8C45.1,49.5,43.8,45.2,43.8,40z M47.6,39v1
			c0,4.2,1,7.6,3.1,10.2c2.1,2.7,4.8,3.9,8.4,3.9c3.5,0,6.3-1.4,8.4-4c2.1-2.7,3.1-6,3.1-10.2v-1c0-4.1-1-7.4-3.1-10.2
			c-2.1-2.7-4.9-4-8.4-4s-6.3,1.4-8.4,4C48.6,31.5,47.6,34.9,47.6,39z"/>
		<path class="st7" d="M86.2,56.7h-3.9V22.2h3.4l0.5,5.7v0.4c2.2-4.5,5.6-6.8,10.1-6.8c0.9,0,1.7,0.1,2.5,0.3l-0.5,3.6l-2.8-0.2
			c-2.3,0-4.3,0.6-5.9,2c-1.5,1.3-2.7,3.2-3.4,5.6V56.7z"/>
		<path class="st7" d="M105.6,10.2h13.5c4.9,0,8.7,1,11.4,3.1c2.7,2,3.9,5.1,3.9,9.2c0,2.4-0.6,4.4-2,6.2c-1.4,1.8-3.1,3-5.6,3.7
			c2.8,0.5,5.2,1.9,6.9,3.9c1.8,2.1,2.7,4.6,2.7,7.4c0,4.1-1.3,7.3-3.9,9.6c-2.7,2.3-6.3,3.4-10.9,3.4h-16.1L105.6,10.2L105.6,10.2z
			 M109.4,13.4v17.6h10.7c3.4,0,6-0.7,7.8-2.3c1.8-1.5,2.7-3.6,2.7-6.5c0-6-3.9-8.9-11.5-8.9L109.4,13.4L109.4,13.4z M122.3,34.4
			h-12.9v19.2h12.2c3.5,0,6.1-0.9,8.1-2.6s2.9-4,2.9-7s-0.9-5.3-2.7-7.1C128.2,35.2,125.6,34.4,122.3,34.4z"/>
		<path class="st7" d="M149.4,6.8v5.4h-3.8V6.8H149.4z M149.4,22.2v34.6h-3.8V22.2H149.4z"/>
		<path class="st7" d="M162.2,13.4h3.9v8.9h7.7v3.1H166v22.6c0,4.1,1.5,6.2,4.5,6.2c1.3,0,2.5-0.1,3.9-0.3l0.6,2.8
			c-1.4,0.6-3.1,0.9-5.1,0.9c-5.1,0-7.7-3.2-7.7-9.6V25.4h-6v-3.1h6V13.4z"/>
		<path class="st8" d="M216.2,33.6v17c-1.3,1.9-3.3,3.5-6.1,4.8c-2.8,1.3-6.3,2-10.3,2c-5.6,0-10.2-1.8-13.9-5.3s-5.4-8.1-5.4-13.8
			v-9.6c0-5.7,1.7-10.3,5.1-13.9c3.4-3.5,7.7-5.3,13.1-5.3s9.5,1.3,12.6,3.9c3.1,2.6,4.7,6,4.7,10.2l-0.1,0.2h-6
			c-0.2-2.8-1.3-5.1-3.1-6.8c-1.9-1.7-4.6-2.6-8.1-2.6c-3.5,0-6.4,1.3-8.5,3.9s-3.3,6-3.3,10.2v9.7c0,4.1,1.2,7.6,3.6,10.2
			s5.5,4,9.3,4c2.5,0,4.6-0.3,6.3-1c1.7-0.6,3-1.5,3.8-2.5V38.5h-10.2v-4.9L216.2,33.6L216.2,33.6z"/>
		<path class="st8" d="M232.6,6.8v49.9h-6.3V6.8H232.6z"/>
		<path class="st8" d="M240.8,39.9v-0.7c0-5.2,1.4-9.4,4.2-12.7c2.8-3.3,6.5-4.9,11.3-4.9c4.8,0,8.5,1.6,11.3,4.9
			c2.8,3.2,4.2,7.5,4.2,12.7v0.7c0,5.2-1.4,9.5-4.2,12.7s-6.5,4.8-11.3,4.8c-4.8,0-8.5-1.6-11.3-4.8
			C242.3,49.4,240.8,45.1,240.8,39.9z M247.2,39.2v0.7c0,3.9,0.8,6.9,2.3,9.2c1.6,2.3,3.9,3.5,6.8,3.5c2.9,0,5.2-1.1,6.8-3.5
			s2.4-5.4,2.4-9.2v-0.7c0-3.8-0.8-6.8-2.4-9.1c-1.6-2.3-3.9-3.5-6.8-3.5c-3,0-5.2,1.1-6.8,3.5S247.2,35.4,247.2,39.2z"/>
		<path class="st8" d="M309.1,40.1v0.6c0,5.1-1.2,9.1-3.6,12.2c-2.4,3-5.7,4.5-9.8,4.5c-4.5,0-7.9-1.8-10.2-5.2l-0.7,4.6h-5.2V6.9
			h6.3v19.3c2.3-3.1,5.5-4.8,9.7-4.8c4.2,0,7.5,1.7,9.9,5.1C307.9,30,309.1,34.5,309.1,40.1z M293.9,26.7c-3.7,0-6.4,1.8-8.1,5.2v15
			c1.7,3.6,4.4,5.4,8.2,5.4c2.9,0,5.1-1,6.6-3.1c1.5-2,2.3-4.8,2.3-8.5l-0.1-0.6c0-4.1-0.7-7.4-2.3-9.8
			C299,27.9,296.8,26.7,293.9,26.7z"/>
		<path class="st8" d="M326.6,57.4c-3.6,0-6.4-0.9-8.2-2.7c-1.9-1.9-2.8-4.4-2.8-7.7c0-3.3,1.3-5.9,3.9-7.7c2.7-1.9,6.3-2.8,11-2.8
			h6.8v-3.4c0-2-0.6-3.6-1.9-4.8s-2.9-1.8-5.1-1.8c-2.1,0-3.8,0.5-5.1,1.5c-1.3,1-1.9,2.3-1.9,3.7h-6l-0.1-0.2
			c-0.1-2.6,1.1-4.9,3.6-7c2.6-2,5.8-3.1,9.7-3.1c3.9,0,7.1,1,9.4,3.1s3.5,4.9,3.5,8.5v16.7c0,2.7,0.3,5,0.9,6.9h-6.5
			c-0.5-2.2-0.7-3.9-0.7-5.2c-1.2,1.8-2.8,3.1-4.7,4.3C330.8,57,328.7,57.4,326.6,57.4z M321.9,47.2L321.9,47.2
			c0,1.5,0.5,2.8,1.5,3.6c1,0.9,2.5,1.3,4.5,1.3c2,0,3.9-0.6,5.9-1.7c1.9-1.1,3.1-2.5,3.6-4v-5.6h-7c-2.5,0-4.5,0.6-6,1.9
			C322.7,43.9,321.9,45.4,321.9,47.2z"/>
		<path class="st8" d="M359.5,6.8v49.9h-6.3V6.8H359.5z"/>
	</g>
</g>
</svg>
