<?xml version="1.0" encoding="utf-8"?>
<!-- Generator: Adobe Illustrator 20.0.0, SVG Export Plug-In . SVG Version: 6.00 Build 0)  -->
<svg version="1.1" id="Layer_1" xmlns="http://www.w3.org/2000/svg" xmlns:xlink="http://www.w3.org/1999/xlink" x="0px" y="0px"
	 viewBox="0 0 408.5 108" style="enable-background:new 0 0 408.5 108;" xml:space="preserve">
<style type="text/css">
	.st0{fill:#999999;}
	.st1{fill:#45BBE1;}
	.st2{fill:#666666;}
	.st3{fill:#FFFFFF;}
</style>
<g>
	<rect x="7.2" y="61.8" class="st0" width="394.1" height="41.6"/>
	<g>
		<path class="st1" d="M48.1,6.1h-4.5H39h-4.5H30h-4.5H21h-4.5H12H7.2v4.5v4.5v4.5v4.5v4.5v4.8v4.5v4.5v4.5v4.5h4.5h4.5h4.5h4.5h4.5
			h4.5H39h4.5H48h4.5v-4.5v-4.5v-4.5v-4.5v-4.5v-4.5v-4.5v-4.5v-4.8V6.1H48.1z M43.6,28.8v4.6H39v4.5h-4.5v4.5H30h-4.5v-4.5H21v-4.5
			h-4.5v-4.5v-4.5H21v-4.5h4.5v-4.5H30h4.5v4.5H39v4.5h4.5L43.6,28.8L43.6,28.8z"/>
		<g>
			<path class="st0" d="M96.8,47.9c-2.7,2.5-6.4,3.7-11.1,3.7s-8.5-1.7-11.5-5.2s-4.4-8-4.4-13.5v-7c0-5.6,1.5-10.1,4.4-13.6
				S81,7.1,85.7,7.1s8.4,1.2,11.1,3.6s4.2,5.9,4.6,10.3v0.2h-3.3c-1-7.4-5-11.1-12.1-11.1c-3.8,0-6.8,1.4-9.1,4.3
				c-2.3,2.9-3.5,6.7-3.5,11.3v7.1c0,4.7,1.1,8.5,3.4,11.4c2.3,2.9,5.3,4.3,9,4.3s6.6-0.9,8.6-2.8c2-1.8,3.2-4.6,3.7-8.4h3.3v0.2
				C101.1,42,99.5,45.5,96.8,47.9z"/>
			<path class="st0" d="M107.7,35.4v-1c0-4.8,1.3-8.7,3.9-11.7s6-4.5,10.3-4.5s7.7,1.5,10.3,4.5s3.9,6.9,3.9,11.7v1
				c0,4.8-1.3,8.7-3.9,11.7c-2.6,3-6,4.5-10.3,4.5s-7.7-1.5-10.3-4.5C109,44.1,107.7,40.2,107.7,35.4z M111.3,34.5v1
				c0,3.9,1,7,2.9,9.5s4.5,3.7,7.8,3.7s5.9-1.2,7.8-3.7c1.9-2.5,2.9-5.6,2.9-9.5v-1c0-3.8-1-6.9-2.9-9.4s-4.5-3.7-7.8-3.7
				s-5.8,1.2-7.8,3.7C112.2,27.5,111.3,30.6,111.3,34.5z"/>
			<path class="st0" d="M147.1,50.9h-3.6V18.8h3.1l0.4,5.3v0.4c2-4.2,5.1-6.3,9.3-6.3c0.8,0,1.6,0.1,2.3,0.3l-0.5,3.3l-2.6-0.2
				c-2.2,0-4,0.6-5.4,1.8s-2.5,3-3.1,5.2v22.3H147.1z"/>
			<path class="st0" d="M165.2,7.7h12.6c4.6,0,8.1,0.9,10.6,2.8s3.7,4.7,3.7,8.5c0,2.2-0.6,4.2-1.9,5.8c-1.2,1.6-3,2.8-5.1,3.4
				c2.6,0.5,4.8,1.7,6.4,3.7c1.6,2,2.5,4.3,2.5,6.9c0,3.9-1.2,6.8-3.7,8.9c-2.5,2.1-5.8,3.1-10.1,3.1h-15V7.7z M168.8,10.7v16.4h10
				c3.2,0,5.6-0.7,7.3-2.1s2.5-3.4,2.5-6.1c0-5.5-3.6-8.3-10.7-8.3h-9.1V10.7z M180.8,30.1h-12V48h11.4c3.2,0,5.7-0.8,7.5-2.4
				c1.8-1.6,2.7-3.7,2.7-6.5s-0.8-5-2.5-6.6C186.2,30.9,183.8,30.1,180.8,30.1z"/>
			<path class="st0" d="M206,4.6v5h-3.5v-5C202.5,4.6,206,4.6,206,4.6z M206,18.8V51h-3.5V18.8H206z"/>
			<path class="st0" d="M217.8,10.6h3.6v8.2h7.1v2.9h-7.1v21c0,3.9,1.4,5.8,4.2,5.8c1.2,0,2.4-0.1,3.6-0.3l0.6,2.6
				c-1.3,0.5-2.9,0.8-4.8,0.8c-4.8,0-7.1-3-7.1-8.9v-21h-5.6v-2.9h5.6v-8.2H217.8z"/>
			<path class="st2" d="M268,29.4v15.8c-1.2,1.8-3.1,3.3-5.7,4.5s-5.8,1.8-9.6,1.8c-5.2,0-9.5-1.7-12.9-5s-5-7.6-5-12.8v-8.9
				c0-5.3,1.6-9.6,4.7-12.9c3.1-3.3,7.2-4.9,12.1-4.9c5,0,8.9,1.2,11.7,3.6s4.3,5.6,4.4,9.5l-0.1,0.2H262c-0.2-2.6-1.2-4.7-3-6.3
				s-4.3-2.4-7.5-2.4s-5.9,1.2-7.9,3.7s-3,5.6-3,9.5v9c0,3.9,1.1,7,3.4,9.5c2.2,2.5,5.1,3.7,8.7,3.7c2.3,0,4.3-0.3,5.9-0.9
				c1.6-0.6,2.8-1.4,3.5-2.3V34h-9.5v-4.6H268z"/>
			<path class="st2" d="M283.3,4.6V51h-5.8V4.6H283.3z"/>
			<path class="st2" d="M291,35.3v-0.7c0-4.8,1.3-8.8,3.9-11.8s6.1-4.6,10.5-4.6s7.9,1.5,10.5,4.5s3.9,7,3.9,11.8v0.7
				c0,4.9-1.3,8.8-3.9,11.8s-6.1,4.5-10.5,4.5s-7.9-1.5-10.5-4.5C292.3,44.1,291,40.1,291,35.3z M296.9,34.6v0.7
				c0,3.6,0.7,6.4,2.2,8.6c1.5,2.1,3.6,3.2,6.3,3.2s4.9-1.1,6.3-3.2c1.5-2.1,2.2-5,2.2-8.5v-0.7c0-3.5-0.7-6.3-2.2-8.5
				s-3.6-3.3-6.3-3.3c-2.7,0-4.8,1.1-6.3,3.3C297.6,28.3,296.9,31.1,296.9,34.6z"/>
			<path class="st2" d="M354.4,35.5v0.6c0,4.7-1.1,8.5-3.4,11.3c-2.2,2.8-5.3,4.2-9.2,4.2c-4.2,0-7.4-1.6-9.4-4.9l-0.7,4.3H327V4.6
				h5.8v18c2.1-2.9,5.1-4.4,9-4.4s7,1.6,9.2,4.7C353.3,26.1,354.4,30.3,354.4,35.5z M340.3,23c-3.4,0-5.9,1.6-7.5,4.9v13.9
				c1.6,3.4,4.1,5.1,7.6,5.1c2.7,0,4.7-1,6.1-2.9s2.1-4.5,2.1-7.9l-0.1-0.6c0-3.8-0.7-6.9-2.1-9.1C345,24.1,343,23,340.3,23z"/>
			<path class="st2" d="M370.7,51.6c-3.3,0-5.9-0.8-7.7-2.5c-1.8-1.7-2.6-4.1-2.6-7.1s1.2-5.5,3.7-7.2s5.9-2.6,10.2-2.6h6.3V29
				c0-1.9-0.6-3.4-1.7-4.5c-1.2-1.1-2.7-1.6-4.7-1.6s-3.5,0.5-4.7,1.4s-1.8,2.1-1.8,3.5h-5.6l-0.1-0.2c-0.1-2.4,1-4.6,3.4-6.5
				s5.4-2.9,9-2.9c3.7,0,6.6,0.9,8.8,2.8c2.2,1.9,3.3,4.5,3.3,8v15.5c0,2.5,0.3,4.6,0.8,6.5h-6c-0.4-2-0.6-3.7-0.7-4.8
				c-1.1,1.6-2.6,2.9-4.3,3.9C374.5,51.1,372.7,51.6,370.7,51.6z M366.3,42.1L366.3,42.1c0,1.5,0.4,2.6,1.3,3.4
				c0.9,0.8,2.3,1.2,4.2,1.2c1.9,0,3.7-0.5,5.4-1.6c1.7-1.1,2.9-2.3,3.4-3.7v-5.2h-6.5c-2.3,0-4.2,0.6-5.6,1.7
				C367,39,366.3,40.4,366.3,42.1z"/>
			<path class="st2" d="M401.3,4.6V51h-5.8V4.6H401.3z"/>
		</g>
	</g>
	<g>
		<path class="st3" d="M38,91.9c-1.3,1.2-3,1.8-5.2,1.8s-4-0.8-5.4-2.5c-1.4-1.6-2.1-3.8-2.1-6.4v-3.3c0-2.6,0.7-4.8,2.1-6.4
			c1.4-1.6,3.2-2.5,5.4-2.5c2.2,0,4,0.6,5.2,1.7c1.3,1.1,2,2.8,2.2,4.9l0,0.1h-1.6c-0.5-3.5-2.4-5.2-5.7-5.2c-1.8,0-3.2,0.7-4.3,2.1
			c-1.1,1.4-1.6,3.2-1.6,5.4v3.4c0,2.2,0.5,4,1.6,5.4c1.1,1.4,2.5,2.1,4.3,2.1c1.8,0,3.1-0.4,4.1-1.3c0.9-0.9,1.5-2.2,1.8-4h1.6
			l0,0.1C40,89.1,39.3,90.7,38,91.9z"/>
		<path class="st3" d="M59.5,81.4v3.3c0,2.7-0.7,4.8-2.2,6.4c-1.4,1.6-3.4,2.4-5.8,2.4s-4.3-0.8-5.8-2.4c-1.4-1.6-2.1-3.8-2.1-6.4
			v-3.3c0-2.7,0.7-4.8,2.1-6.4s3.3-2.4,5.8-2.4s4.4,0.8,5.8,2.4S59.5,78.8,59.5,81.4z M57.9,84.8v-3.4c0-2.2-0.6-4-1.7-5.4
			c-1.1-1.3-2.7-2-4.6-2c-2,0-3.5,0.7-4.6,2c-1.1,1.3-1.6,3.1-1.6,5.4v3.4c0,2.3,0.5,4.1,1.6,5.4s2.6,2,4.6,2c2,0,3.5-0.7,4.6-2
			C57.3,88.8,57.9,87,57.9,84.8z"/>
		<path class="st3" d="M71.3,84.1h-5.8v9.2h-1.7V72.8h6.9c2.2,0,3.9,0.5,5.1,1.4c1.2,1,1.7,2.4,1.7,4.2c0,1.1-0.3,2.1-0.9,2.9
			c-0.6,0.8-1.5,1.5-2.7,1.9c2.4,0.6,3.6,2.2,3.6,4.8V90c0,1.4,0.3,2.4,1,3v0.3h-1.7c-0.6-0.6-0.9-1.7-0.9-3.3v-1.9
			c0-1.3-0.4-2.3-1.2-3S72.8,84.1,71.3,84.1z M65.6,74.3v8.3h5c1.8,0,3.2-0.4,4-1.1s1.3-1.8,1.3-3.1s-0.4-2.4-1.3-3.1
			c-0.9-0.7-2.1-1.1-3.8-1.1H65.6z"/>
		<path class="st3" d="M94.4,82v1.4h-9.9v8.5h11.3v1.4h-13V72.8h12.9v1.4H84.6V82H94.4z"/>
		<path class="st3" d="M107.5,72.8h2.2l7.5,18h0.1l7.5-18h2.2v20.5h-1.7v-9l0.1-9l-0.1,0l-7.6,18h-1.2l-7.6-17.9H109l0.2,8.9v9h-1.7
			V72.8z"/>
		<path class="st3" d="M144,82v1.4h-9.9v8.5h11.3v1.4h-13V72.8h12.9v1.4h-11.2V82H144z"/>
		<path class="st3" d="M155.3,92.2c1.6,0,3-0.4,3.9-1.1c1-0.7,1.5-1.6,1.5-2.8c0-1.1-0.4-2.1-1.3-2.8s-2.3-1.3-4.3-1.9
			c-2.3-0.6-4.1-1.3-5.2-2.2s-1.7-2.1-1.7-3.7s0.6-2.8,1.9-3.8c1.3-1,3-1.5,5-1.5s3.7,0.6,5.1,1.7c1.3,1.2,1.9,2.6,1.9,4.3l0,0.1
			h-1.5c0-1.4-0.5-2.5-1.5-3.4c-1-0.9-2.3-1.3-3.9-1.3c-1.6,0-2.9,0.4-3.9,1.1c-0.9,0.7-1.4,1.6-1.4,2.7c0,1.1,0.4,2,1.3,2.6
			c0.9,0.7,2.4,1.3,4.6,1.8s3.8,1.3,4.9,2.3c1.1,1,1.7,2.2,1.7,3.8s-0.7,2.9-2,3.8c-1.3,1-3,1.5-5.1,1.5c-2.1,0-3.9-0.5-5.4-1.5
			c-0.7-0.5-1.2-1.1-1.6-1.9c-0.4-0.8-0.6-1.6-0.6-2.6l0-0.1h1.5c0,1,0.3,1.9,0.8,2.6C151.2,91.5,152.9,92.2,155.3,92.2z"/>
		<path class="st3" d="M172.6,92.2c1.6,0,3-0.4,3.9-1.1c1-0.7,1.5-1.6,1.5-2.8c0-1.1-0.4-2.1-1.3-2.8s-2.3-1.3-4.3-1.9
			c-2.3-0.6-4.1-1.3-5.2-2.2s-1.7-2.1-1.7-3.7s0.6-2.8,1.9-3.8c1.3-1,3-1.5,5-1.5s3.7,0.6,5.1,1.7c1.3,1.2,1.9,2.6,1.9,4.3l0,0.1
			h-1.5c0-1.4-0.5-2.5-1.5-3.4c-1-0.9-2.3-1.3-3.9-1.3c-1.6,0-2.9,0.4-3.9,1.1c-0.9,0.7-1.4,1.6-1.4,2.7c0,1.1,0.4,2,1.3,2.6
			c0.9,0.7,2.4,1.3,4.6,1.8s3.8,1.3,4.9,2.3c1.1,1,1.7,2.2,1.7,3.8s-0.7,2.9-2,3.8c-1.3,1-3,1.5-5.1,1.5c-2.1,0-3.9-0.5-5.4-1.5
			c-0.7-0.5-1.2-1.1-1.6-1.9c-0.4-0.8-0.6-1.6-0.6-2.6l0-0.1h1.5c0,1,0.3,1.9,0.8,2.6C168.5,91.5,170.2,92.2,172.6,92.2z"/>
		<path class="st3" d="M196.8,93.3l-2.1-5.7h-9.4l-2.1,5.7h-1.7l7.8-20.5h1.6l7.7,20.5H196.8z M189.9,75l-4.1,11.1h8.3L189.9,75
			L189.9,75z"/>
		<path class="st3" d="M216.2,83.6v7.3c-0.5,0.8-1.4,1.4-2.6,1.9c-1.2,0.5-2.7,0.8-4.5,0.8c-2.4,0-4.4-0.8-5.9-2.4
			c-1.5-1.6-2.3-3.7-2.3-6.3v-3.8c0-2.5,0.7-4.6,2.2-6.2c1.4-1.6,3.3-2.4,5.5-2.4s4,0.5,5.2,1.6c1.3,1.1,2,2.5,2.2,4.3l0,0.1h-1.6
			c-0.2-1.4-0.8-2.6-1.8-3.4c-0.9-0.8-2.3-1.2-4.1-1.2s-3.2,0.7-4.3,2c-1.1,1.3-1.7,3-1.7,5.1v3.8c0,2.2,0.6,3.9,1.8,5.3
			c1.2,1.4,2.8,2,4.7,2c1.3,0,2.4-0.2,3.4-0.5c1-0.4,1.6-0.8,2-1.3v-5.3h-5.4v-1.4H216.2z"/>
		<path class="st3" d="M223.4,72.8v20.5h-1.7V72.8H223.4z"/>
		<path class="st3" d="M244.2,72.8v20.5h-1.7l-11.6-17.6l-0.1,0v17.6h-1.7V72.8h1.7l11.6,17.6l0.1,0V72.8H244.2z"/>
		<path class="st3" d="M264.2,83.6v7.3c-0.5,0.8-1.4,1.4-2.6,1.9c-1.2,0.5-2.7,0.8-4.5,0.8c-2.4,0-4.4-0.8-5.9-2.4
			c-1.5-1.6-2.3-3.7-2.3-6.3v-3.8c0-2.5,0.7-4.6,2.2-6.2c1.4-1.6,3.3-2.4,5.5-2.4s4,0.5,5.2,1.6c1.3,1.1,2,2.5,2.2,4.3l0,0.1h-1.6
			c-0.2-1.4-0.8-2.6-1.8-3.4c-0.9-0.8-2.3-1.2-4.1-1.2s-3.2,0.7-4.3,2c-1.1,1.3-1.7,3-1.7,5.1v3.8c0,2.2,0.6,3.9,1.8,5.3
			c1.2,1.4,2.8,2,4.7,2c1.3,0,2.4-0.2,3.4-0.5c1-0.4,1.6-0.8,2-1.3v-5.3h-5.4v-1.4H264.2z"/>
		<path class="st3" d="M283.5,92.2c1.6,0,3-0.4,3.9-1.1c1-0.7,1.5-1.6,1.5-2.8c0-1.1-0.4-2.1-1.3-2.8s-2.3-1.3-4.3-1.9
			c-2.3-0.6-4.1-1.3-5.2-2.2s-1.7-2.1-1.7-3.7s0.6-2.8,1.9-3.8c1.3-1,3-1.5,5-1.5s3.7,0.6,5.1,1.7c1.3,1.2,1.9,2.6,1.9,4.3l0,0.1
			h-1.5c0-1.4-0.5-2.5-1.5-3.4c-1-0.9-2.3-1.3-3.9-1.3c-1.6,0-2.9,0.4-3.9,1.1c-0.9,0.7-1.4,1.6-1.4,2.7c0,1.1,0.4,2,1.3,2.6
			c0.9,0.7,2.4,1.3,4.6,1.8s3.8,1.3,4.9,2.3c1.1,1,1.7,2.2,1.7,3.8s-0.7,2.9-2,3.8c-1.3,1-3,1.5-5.1,1.5c-2.1,0-3.9-0.5-5.4-1.5
			c-0.7-0.5-1.2-1.1-1.6-1.9c-0.4-0.8-0.6-1.6-0.6-2.6l0-0.1h1.5c0,1,0.3,1.9,0.8,2.6C279.4,91.5,281.1,92.2,283.5,92.2z"/>
		<path class="st3" d="M301.4,93.3h-1.7v-7.6l-7.4-12.9h2l6.3,11.4l6.3-11.4h2l-7.5,13V93.3z"/>
		<path class="st3" d="M318.1,92.2c1.6,0,3-0.4,3.9-1.1c1-0.7,1.5-1.6,1.5-2.8c0-1.1-0.4-2.1-1.3-2.8s-2.3-1.3-4.3-1.9
			c-2.3-0.6-4.1-1.3-5.2-2.2s-1.7-2.1-1.7-3.7s0.6-2.8,1.9-3.8c1.3-1,3-1.5,5-1.5s3.7,0.6,5.1,1.7c1.3,1.2,1.9,2.6,1.9,4.3l0,0.1
			h-1.5c0-1.4-0.5-2.5-1.5-3.4c-1-0.9-2.3-1.3-3.9-1.3c-1.6,0-2.9,0.4-3.9,1.1c-0.9,0.7-1.4,1.6-1.4,2.7c0,1.1,0.4,2,1.3,2.6
			c0.9,0.7,2.4,1.3,4.6,1.8s3.8,1.3,4.9,2.3c1.1,1,1.7,2.2,1.7,3.8s-0.7,2.9-2,3.8c-1.3,1-3,1.5-5.1,1.5c-2.1,0-3.9-0.5-5.4-1.5
			c-0.7-0.5-1.2-1.1-1.6-1.9c-0.4-0.8-0.6-1.6-0.6-2.6l0-0.1h1.5c0,1,0.3,1.9,0.8,2.6C314,91.5,315.7,92.2,318.1,92.2z"/>
		<path class="st3" d="M342.9,72.8v1.4h-7v19h-1.7v-19h-7v-1.4H342.9z"/>
		<path class="st3" d="M357.7,82v1.4h-9.9v8.5h11.3v1.4h-13V72.8h12.9v1.4h-11.2V82H357.7z"/>
		<path class="st3" d="M362.8,72.8h2.2l7.5,18h0.1l7.5-18h2.2v20.5h-1.7v-9l0.1-9l-0.1,0l-7.6,18H372l-7.6-17.9h-0.1l0.2,8.9v9h-1.7
			V72.8z"/>
	</g>
</g>
</svg>
