<?xml version="1.0" encoding="utf-8"?>
<!-- Generator: Adobe Illustrator 20.0.0, SVG Export Plug-In . SVG Version: 6.00 Build 0)  -->
<svg version="1.1" id="Layer_1" xmlns="http://www.w3.org/2000/svg" xmlns:xlink="http://www.w3.org/1999/xlink" x="0px" y="0px"
	 viewBox="0 0 439.7 60.7" style="enable-background:new 0 0 439.7 60.7;" xml:space="preserve">
<style type="text/css">
	.st0{fill:#999999;}
	.st1{fill:#666666;}
	.st2{fill:#FFFFFF;}
	.st3{fill:#FFCE00;}
</style>
<g>
	<g>
		<path class="st0" d="M93.5,43c-2.6,2.4-6.1,3.5-10.6,3.5c-4.5,0-8.1-1.6-10.9-4.9c-2.8-3.3-4.2-7.6-4.2-12.9V22
			c0-5.3,1.4-9.6,4.2-12.9c2.8-3.3,6.5-5,11-5c4.5,0,8,1.2,10.6,3.5c2.6,2.3,4,5.6,4.4,9.8l0,0.2h-3.2C93.7,10.5,89.9,7,83.1,7
			c-3.6,0-6.5,1.4-8.7,4.1c-2.2,2.8-3.3,6.4-3.3,10.8v6.8c0,4.5,1.1,8.1,3.3,10.9c2.2,2.8,5,4.1,8.6,4.1c3.5,0,6.3-0.9,8.2-2.6
			c1.9-1.8,3.1-4.4,3.5-8h3.2l0,0.2C97.5,37.4,96.1,40.7,93.5,43z"/>
		<path class="st0" d="M103.9,31.1v-0.9c0-4.6,1.2-8.3,3.7-11.2c2.5-2.9,5.8-4.3,9.8-4.3c4.1,0,7.4,1.4,9.9,4.3
			c2.5,2.9,3.7,6.6,3.7,11.2v0.9c0,4.6-1.2,8.3-3.7,11.2c-2.5,2.9-5.8,4.3-9.9,4.3c-4.1,0-7.4-1.4-9.9-4.3
			C105.1,39.4,103.9,35.7,103.9,31.1z M107.3,30.2v0.9c0,3.7,0.9,6.7,2.7,9.1c1.8,2.4,4.3,3.5,7.4,3.5c3.1,0,5.6-1.2,7.4-3.5
			c1.8-2.4,2.7-5.4,2.7-9.1v-0.9c0-3.6-0.9-6.6-2.8-9c-1.8-2.4-4.3-3.6-7.4-3.6c-3.1,0-5.6,1.2-7.4,3.6
			C108.2,23.5,107.3,26.5,107.3,30.2z"/>
		<path class="st0" d="M141.5,45.9h-3.4V15.2h3l0.4,5.1v0.3c1.9-4,4.9-6,8.9-6c0.8,0,1.5,0.1,2.2,0.3l-0.4,3.2l-2.5-0.2
			c-2.1,0-3.8,0.6-5.2,1.8c-1.4,1.2-2.4,2.8-3,5V45.9z"/>
		<path class="st0" d="M158.8,4.6h12c4.4,0,7.8,0.9,10.1,2.7c2.3,1.8,3.5,4.5,3.5,8.1c0,2.1-0.6,4-1.8,5.5c-1.2,1.6-2.8,2.7-4.9,3.3
			c2.5,0.5,4.6,1.6,6.1,3.5c1.6,1.9,2.3,4.1,2.3,6.6c0,3.7-1.2,6.5-3.5,8.5c-2.4,2-5.6,3-9.6,3l-14.3,0V4.6z M162.2,7.5v15.7h9.5
			c3,0,5.3-0.7,7-2c1.6-1.3,2.4-3.2,2.4-5.8c0-5.3-3.4-7.9-10.2-7.9H162.2z M173.6,26h-11.4v17.1h10.9c3.1,0,5.5-0.8,7.2-2.3
			c1.7-1.5,2.6-3.6,2.6-6.2c0-2.6-0.8-4.7-2.4-6.3C178.8,26.8,176.6,26,173.6,26z"/>
		<path class="st0" d="M197.7,1.6v4.8h-3.4V1.6H197.7z M197.7,15.2v30.7h-3.4V15.2H197.7z"/>
		<path class="st0" d="M209,7.4h3.4v7.8h6.8V18h-6.8v20c0,3.7,1.3,5.5,4,5.5c1.1,0,2.2-0.1,3.4-0.3l0.5,2.5
			c-1.2,0.5-2.7,0.8-4.5,0.8c-4.5,0-6.8-2.8-6.8-8.5V18h-5.3v-2.8h5.3V7.4z"/>
		<path class="st1" d="M233,40.1c1.9,1.4,4.3,2.1,7.2,2.1s5.2-0.6,6.8-1.8c1.6-1.2,2.5-2.8,2.5-4.8s-0.7-3.6-2.2-4.9
			c-1.5-1.3-4-2.3-7.5-3.2c-9.3-2.2-13.9-6.3-13.9-12.2c0-3.3,1.3-6,4-8.1c2.6-2.1,6.1-3.2,10.4-3.2c4.3,0,7.8,1.2,10.5,3.6
			c2.7,2.4,4,5.3,3.9,8.7l-0.1,0.2h-5.3c0-2.5-0.8-4.5-2.4-5.9c-1.6-1.5-3.9-2.2-6.7-2.2c-2.8,0-5,0.6-6.5,1.8
			c-1.5,1.2-2.3,2.8-2.3,4.8s0.8,3.5,2.4,4.7c1.6,1.2,4.2,2.2,7.8,3.2c8.9,2.2,13.3,6.4,13.3,12.6c0,3.3-1.4,6-4.1,8
			c-2.7,2-6.3,3-10.7,3c-2.8,0-5.4-0.5-7.7-1.5c-2.4-1-4.3-2.4-5.7-4.3c-1.4-1.9-2.1-4.1-2.1-6.5l0.1-0.2h5.3
			C230.2,36.7,231.1,38.7,233,40.1z"/>
		<path class="st1" d="M274.9,46.6c-4.3,0-7.7-1.4-10.2-4.2c-2.5-2.8-3.8-6.5-3.8-11.1v-1.3c0-4.3,1.3-7.9,3.9-10.9
			c2.6-2.9,5.7-4.4,9.3-4.4c4.1,0,7.2,1.2,9.3,3.7c2.2,2.4,3.2,5.8,3.2,10.1v3.5h-19.9l-0.1,0.1c0.1,3,0.8,5.5,2.3,7.3
			c1.5,1.9,3.5,2.8,6,2.8c3.6,0,6.5-1,8.7-3l2.2,3.6h0C283.2,45.3,279.6,46.6,274.9,46.6z M281,26.8c0-2.3-0.6-4.2-1.8-5.6
			c-1.2-1.4-2.9-2.1-5.2-2.1c-1.8,0-3.4,0.8-4.8,2.3c-1.3,1.6-2.2,3.5-2.5,6l0.1,0.2H281V26.8z"/>
		<path class="st1" d="M297.2,31.2c0,3.3,0.6,5.9,1.8,7.8c1.3,2.1,3.4,3.2,6.3,3.2c1.9,0,3.5-0.6,4.9-1.7c1.4-1.2,2.1-2.6,2.1-4.2h5
			l0.1,0.2c0.1,2.7-1.1,5-3.5,7.1c-2.4,2-5.3,3.1-8.6,3.1c-4.4,0-7.8-1.4-10.2-4.3c-2.4-2.8-3.6-6.5-3.6-11.1V30
			c0-4.5,1.2-8.2,3.6-11.1c2.4-2.8,5.8-4.3,10.2-4.3c3.6,0,6.5,1.1,8.8,3.2c2.3,2.1,3.4,4.7,3.3,7.8l-0.1,0.2h-5
			c0-1.9-0.7-3.5-2-4.8c-1.3-1.3-3-2-4.9-2c-2,0-3.6,0.5-4.8,1.5c-1.3,1-2.1,2.3-2.6,3.8c-0.5,1.6-0.8,3.4-0.8,5.6V31.2z"/>
		<path class="st1" d="M334.3,46.6c-3.4,0-6.1-1.1-7.9-3.3s-2.7-5.5-2.7-9.9V15.3h5.6v18.2c0,3.2,0.5,5.5,1.4,6.7
			c0.9,1.3,2.5,1.9,4.6,1.9c3.8,0,6.5-1.5,7.9-4.6V15.3h5.6V46h-5l-0.4-4.5C341.2,44.8,338.2,46.6,334.3,46.6z"/>
		<path class="st1" d="M362.3,45.9h-5.6V15.2h5l0.5,4.5c1.9-3.4,4.4-5.1,7.6-5.1c0.8,0,1.5,0.1,2.1,0.3l-0.8,5.2l-2.9-0.2
			c-2.9,0-4.9,1.3-6.1,4V45.9z"/>
		<path class="st1" d="M382.7,1.6v5.7h-5.6V1.6H382.7z M382.7,15.2v30.7h-5.6V15.2H382.7z"/>
		<path class="st1" d="M393.1,7.8h5.6v7.4h5.8v4.2h-5.8V38c0,2.6,1.1,3.9,3.2,3.9c0.7,0,1.4-0.1,2.1-0.4l0.7,3.8
			c-1,0.8-2.4,1.2-4.3,1.2c-2.4,0-4.2-0.7-5.5-2.1c-1.3-1.4-2-3.5-2-6.4V19.4h-4.9v-4.2h4.9V7.8z"/>
		<path class="st1" d="M413.6,59.7c-0.8,0-1.9-0.1-3.3-0.4l0.6-4.4c1.4,0.1,2.2,0.2,2.5,0.2c1.1,0,2-0.5,2.8-1.4
			c0.7-0.9,1.4-2.2,2-3.7l1.3-3.2L408,16.6h6.2l6.5,19.3l1,3.8h0.2l7.5-23.2h6.2L422.8,52C420.9,57.1,417.8,59.7,413.6,59.7z"/>
	</g>
	<g>
		<path class="st2" d="M34.9,16.7v-4.5h-4.5h-4.5h-4.5h-4.5v4.5h-4.5v4.5v4.5v4.5h4.5v4.5v4.5h4.5h4.5h4.5h4.5v-4.5v-4.5h4.5v-4.5
			v-4.5v-4.5H34.9z M34.9,25.7h-4.5h-4.5h-4.5h-4.5v-4.5h4.5h4.5h4.5h4.5V25.7z"/>
		<g>
			<path class="st3" d="M43.9,3.2h-4.5h-4.5h-4.5h-4.5h-4.5h-4.5h-4.5H7.8H3.3v4.5v4.5v4.5v4.5v4.5v4.5v4.5v4.5v4.5v4.5h4.5h4.5h4.5
				h4.5h4.5h4.5h4.5h4.5h4.5h4.5v-4.5v-4.5v-4.5v-4.5v-4.5v-4.5v-4.5v-4.5V7.7V3.2H43.9z M39.4,21.2v4.5v4.5h-4.5v4.5v4.5h-4.5h-4.5
				h-4.5h-4.5v-4.5v-4.5h-4.5v-4.5v-4.5v-4.5h4.5v-4.5h4.5h4.5h4.5h4.5v4.5h4.5V21.2z"/>
			<polygon class="st3" points="25.8,21.2 21.3,21.2 16.8,21.2 16.8,25.7 21.3,25.7 25.8,25.7 30.3,25.7 34.9,25.7 34.9,21.2 
				30.3,21.2 			"/>
		</g>
	</g>
</g>
</svg>
