<?xml version="1.0" encoding="utf-8"?>
<!-- Generator: Adobe Illustrator 20.0.0, SVG Export Plug-In . SVG Version: 6.00 Build 0)  -->
<svg version="1.1" id="Layer_1" xmlns="http://www.w3.org/2000/svg" xmlns:xlink="http://www.w3.org/1999/xlink" x="0px" y="0px"
	 viewBox="0 0 408.5 51.4" style="enable-background:new 0 0 408.5 51.4;" xml:space="preserve">
<style type="text/css">
	.st0{fill:#45BBE1;}
	.st1{fill:#999999;}
	.st2{fill:#666666;}
</style>
<g>
	<path class="st0" d="M48.1,3.7h-4.5H39h-4.5h-4.5h-4.5h-4.5h-4.5h-4.5H7.2v4.5v4.5v4.5v4.5v4.5V31v4.5V40v4.5v4.5h4.5h4.5h4.5h4.5
		h4.5h4.5H39h4.5h4.5h4.5v-4.5V40v-4.5V31v-4.5v-4.5v-4.5v-4.5V8.2V3.7H48.1z M43.6,26.4V31H39v4.5h-4.5V40h-4.5h-4.5v-4.5h-4.5V31
		h-4.5v-4.5v-4.5h4.5v-4.5h4.5v-4.5h4.5h4.5v4.5H39v4.5h4.5V26.4z"/>
	<g>
		<path class="st1" d="M96.8,45.5c-2.7,2.5-6.4,3.7-11.1,3.7c-4.7,0-8.5-1.7-11.5-5.2c-3-3.5-4.4-8-4.4-13.5v-7
			c0-5.6,1.5-10.1,4.4-13.6c2.9-3.5,6.8-5.2,11.5-5.2c4.7,0,8.4,1.2,11.1,3.6c2.7,2.4,4.2,5.9,4.6,10.3l0,0.2h-3.3
			c-1-7.4-5-11.1-12.1-11.1c-3.8,0-6.8,1.4-9.1,4.3c-2.3,2.9-3.5,6.7-3.5,11.3v7.1c0,4.7,1.1,8.5,3.4,11.4c2.3,2.9,5.3,4.3,9,4.3
			c3.7,0,6.6-0.9,8.6-2.8c2-1.8,3.2-4.6,3.7-8.4h3.3l0,0.2C101.1,39.6,99.5,43.1,96.8,45.5z"/>
		<path class="st1" d="M107.7,33v-1c0-4.8,1.3-8.7,3.9-11.7c2.6-3,6-4.5,10.3-4.5c4.3,0,7.7,1.5,10.3,4.5s3.9,6.9,3.9,11.7v1
			c0,4.8-1.3,8.7-3.9,11.7c-2.6,3-6,4.5-10.3,4.5c-4.3,0-7.7-1.5-10.3-4.5C109,41.7,107.7,37.8,107.7,33z M111.3,32.1v1
			c0,3.9,1,7,2.9,9.5c1.9,2.5,4.5,3.7,7.8,3.7c3.3,0,5.9-1.2,7.8-3.7s2.9-5.6,2.9-9.5v-1c0-3.8-1-6.9-2.9-9.4
			c-1.9-2.5-4.5-3.7-7.8-3.7s-5.8,1.2-7.8,3.7C112.2,25.1,111.3,28.2,111.3,32.1z"/>
		<path class="st1" d="M147.1,48.5h-3.6V16.4h3.1l0.4,5.3v0.4c2-4.2,5.1-6.3,9.3-6.3c0.8,0,1.6,0.1,2.3,0.3l-0.5,3.3l-2.6-0.2
			c-2.2,0-4,0.6-5.4,1.8s-2.5,3-3.1,5.2V48.5z"/>
		<path class="st1" d="M165.2,5.3h12.6c4.6,0,8.1,0.9,10.6,2.8c2.5,1.9,3.7,4.7,3.7,8.5c0,2.2-0.6,4.2-1.9,5.8
			c-1.2,1.6-3,2.8-5.1,3.4c2.6,0.5,4.8,1.7,6.4,3.7c1.6,2,2.5,4.3,2.5,6.9c0,3.9-1.2,6.8-3.7,8.9c-2.5,2.1-5.8,3.1-10.1,3.1l-15,0
			V5.3z M168.8,8.3v16.4h10c3.2,0,5.6-0.7,7.3-2.1c1.7-1.4,2.5-3.4,2.5-6.1c0-5.5-3.6-8.3-10.7-8.3H168.8z M180.8,27.7h-12v17.9
			h11.4c3.2,0,5.7-0.8,7.5-2.4c1.8-1.6,2.7-3.7,2.7-6.5c0-2.8-0.8-5-2.5-6.6C186.2,28.5,183.8,27.7,180.8,27.7z"/>
		<path class="st1" d="M206,2.2v5h-3.5v-5H206z M206,16.4v32.2h-3.5V16.4H206z"/>
		<path class="st1" d="M217.8,8.2h3.6v8.2h7.1v2.9h-7.1v21c0,3.9,1.4,5.8,4.2,5.8c1.2,0,2.4-0.1,3.6-0.3l0.6,2.6
			c-1.3,0.5-2.9,0.8-4.8,0.8c-4.8,0-7.1-3-7.1-8.9v-21h-5.6v-2.9h5.6V8.2z"/>
		<path class="st2" d="M268,27v15.8c-1.2,1.8-3.1,3.3-5.7,4.5c-2.6,1.2-5.8,1.8-9.6,1.8c-5.2,0-9.5-1.7-12.9-5
			c-3.4-3.3-5-7.6-5-12.8v-8.9c0-5.3,1.6-9.6,4.7-12.9c3.1-3.3,7.2-4.9,12.1-4.9c5,0,8.9,1.2,11.7,3.6s4.3,5.6,4.4,9.5l-0.1,0.2
			h-5.6c-0.2-2.6-1.2-4.7-3-6.3c-1.8-1.6-4.3-2.4-7.5-2.4c-3.2,0-5.9,1.2-7.9,3.7c-2,2.5-3,5.6-3,9.5v9c0,3.9,1.1,7,3.4,9.5
			c2.2,2.5,5.1,3.7,8.7,3.7c2.3,0,4.3-0.3,5.9-0.9c1.6-0.6,2.8-1.4,3.5-2.3v-9.8h-9.5V27H268z"/>
		<path class="st2" d="M283.3,2.2v46.4h-5.8V2.2H283.3z"/>
		<path class="st2" d="M291,32.9v-0.7c0-4.8,1.3-8.8,3.9-11.8c2.6-3,6.1-4.6,10.5-4.6s7.9,1.5,10.5,4.5c2.6,3,3.9,7,3.9,11.8v0.7
			c0,4.9-1.3,8.8-3.9,11.8c-2.6,3-6.1,4.5-10.5,4.5c-4.4,0-7.9-1.5-10.5-4.5C292.3,41.7,291,37.7,291,32.9z M296.9,32.2v0.7
			c0,3.6,0.7,6.4,2.2,8.6c1.5,2.1,3.6,3.2,6.3,3.2s4.9-1.1,6.3-3.2c1.5-2.1,2.2-5,2.2-8.5v-0.7c0-3.5-0.7-6.3-2.2-8.5
			c-1.5-2.2-3.6-3.3-6.3-3.3c-2.7,0-4.8,1.1-6.3,3.3C297.6,25.9,296.9,28.7,296.9,32.2z"/>
		<path class="st2" d="M354.4,33.1v0.6c0,4.7-1.1,8.5-3.4,11.3c-2.2,2.8-5.3,4.2-9.2,4.2c-4.2,0-7.4-1.6-9.4-4.9l-0.7,4.3H327V2.2
			h5.8v18c2.1-2.9,5.1-4.4,9-4.4c3.9,0,7,1.6,9.2,4.7C353.3,23.7,354.4,27.9,354.4,33.1z M340.3,20.6c-3.4,0-5.9,1.6-7.5,4.9v13.9
			c1.6,3.4,4.1,5.1,7.6,5.1c2.7,0,4.7-1,6.1-2.9c1.4-1.9,2.1-4.5,2.1-7.9l-0.1-0.6c0-3.8-0.7-6.9-2.1-9.1
			C345,21.7,343,20.6,340.3,20.6z"/>
		<path class="st2" d="M370.7,49.2c-3.3,0-5.9-0.8-7.7-2.5c-1.8-1.7-2.6-4.1-2.6-7.1s1.2-5.5,3.7-7.2c2.5-1.7,5.9-2.6,10.2-2.6h6.3
			v-3.2c0-1.9-0.6-3.4-1.7-4.5c-1.2-1.1-2.7-1.6-4.7-1.6c-2,0-3.5,0.5-4.7,1.4c-1.2,0.9-1.8,2.1-1.8,3.5h-5.6l-0.1-0.2
			c-0.1-2.4,1-4.6,3.4-6.5c2.4-1.9,5.4-2.9,9-2.9c3.7,0,6.6,0.9,8.8,2.8c2.2,1.9,3.3,4.5,3.3,8v15.5c0,2.5,0.3,4.6,0.8,6.5h-6
			c-0.4-2-0.6-3.7-0.7-4.8c-1.1,1.6-2.6,2.9-4.3,3.9C374.5,48.7,372.7,49.2,370.7,49.2z M366.3,39.7L366.3,39.7
			c0,1.5,0.4,2.6,1.3,3.4c0.9,0.8,2.3,1.2,4.2,1.2c1.9,0,3.7-0.5,5.4-1.6c1.7-1.1,2.9-2.3,3.4-3.7v-5.2h-6.5c-2.3,0-4.2,0.6-5.6,1.7
			C367,36.6,366.3,38,366.3,39.7z"/>
		<path class="st2" d="M401.3,2.2v46.4h-5.8V2.2H401.3z"/>
	</g>
</g>
</svg>
